# xmcd
#
# Track frame offsets: 
#        150
#        19419
#        41884
#        66968
#        87871
#        109929
#        135074
#        159235
#        180521
#        206645
#        224830
#        243657
#
# Disc length: 3537 seconds
#
# Revision: 1
# Processed by: cddbd v1.5.2PL0 Copyright (c) Steve Scherf et al.
# Submitted via: ExactAudioCopy v1.0b3
#
DISCID=ac0dcf0c
DTITLE=Quang Le, VA - Khong Phai Tai Chung Minh
DYEAR=2012
DGENRE=Folk
TTITLE0=Quang Le - Ve dau mai toc nguoi thuong
TTITLE1=Quang Le - Ha buon
TTITLE2=Quang Le, Ha Phuong - LK Trom nhin nhau, Ai kho vi ai
TTITLE3=Quang Le - Hia chuyen tau dem
TTITLE4=Quang Le, Ha My - Khong phai tai chung minh
TTITLE5=Quang Le, Nguyen Le - LK Mua nua dem, Ai cho toi tinh yeu
TTITLE6=Quang Le, Le Quyen - Khong gio roi
TTITLE7=Quang Le - Ve que ngoai
TTITLE8=Quang Le, Ha Phuong - Phai long
TTITLE9=Quang Le - Chieu nuoc lu
TTITLE10=Quang Le - Hai loi mong
TTITLE11=Quang Le, Nguyen Le - Thoi doi
EXTD=
EXTT0=
EXTT1=
EXTT2=
EXTT3=
EXTT4=
EXTT5=
EXTT6=
EXTT7=
EXTT8=
EXTT9=
EXTT10=
EXTT11=
PLAYORDER=
